<svg width="252" height="249" viewBox="0 0 252 249" fill="none" xmlns="http://www.w3.org/2000/svg">
<path d="M245.31 117.349L251.24 111.419V62.2118L249.471 57.9673L190.381 0H187.946L5.9299 0.374504L0 6.30441V69.723L4.05732 72.5735L59.3405 111.378V118.577H5.9299L0 124.507V184.846L1.74778 189.049L59.611 246.912L63.8139 248.66H188.529L192.44 247.183L249.243 197.496L251.261 193.023V133.87L245.331 127.94H131.581V117.329H245.331L245.31 117.349ZM131.56 105.469V72.5943H185.907L206.964 89.0107L228.061 105.469H131.56ZM239.38 99.2476L193.876 63.7515L193.918 20.0992L239.38 64.6878V99.2476ZM24.7183 72.5943H59.3405V96.8965L24.7183 72.5943ZM59.3405 182.391V229.892L11.8598 182.412V130.458H65.2704L71.2003 124.528V66.6644L65.2704 60.7346H11.8598V12.2551L181.996 11.9014V60.7346H125.61L119.68 66.6644V176.461H65.2704L59.3405 182.391ZM186.282 236.8H71.2211V188.342H187.946L191.775 186.948L239.38 146.687V190.36L186.282 236.821V236.8ZM229.102 139.821L185.762 176.461H131.56V139.821H229.102Z" fill="#141414"/>
</svg>
