<svg width="906" height="249" viewBox="0 0 906 249" fill="none" xmlns="http://www.w3.org/2000/svg">
<path d="M308.847 117.884H296.259V35.7814H308.847V117.884Z" fill="white"/>
<path d="M328.827 69.8817H333.612L330.595 75.0833C331.698 71.0677 333.425 67.3225 335.797 63.8686C338.169 60.3939 341.103 57.6266 344.619 55.5251C348.135 53.4237 351.985 52.3833 356.187 52.3833C360.39 52.3833 363.636 53.2364 366.528 54.9217C369.4 56.607 371.605 59.1038 373.166 62.3705C374.726 65.6579 375.496 69.6736 375.496 74.4175V117.924H363.595V77.1432C363.595 74.1262 363.178 71.6086 362.367 69.5488C361.556 67.4889 360.203 65.9284 358.331 64.8257C356.458 63.7229 354.065 63.1819 351.152 63.1819C347.22 63.1819 343.724 64.0558 340.624 65.7828C337.524 67.5097 335.11 69.8401 333.363 72.753C331.636 75.6659 330.762 78.995 330.762 82.7402V117.903H318.86V54.0062H330.221V78.3708L328.848 69.8817H328.827Z" fill="white"/>
<path d="M380.943 53.9892H425.012V63.4355H380.943V53.9892ZM404.767 47.6848V117.886H392.865V47.1439C392.865 42.5872 393.635 38.6548 395.196 35.3673C396.756 32.0799 399.045 29.4998 402.103 27.6272C405.162 25.7546 409.011 24.8184 413.672 24.8184C416.231 24.8184 418.416 24.9432 420.247 25.1512C422.078 25.3801 423.618 25.6298 424.908 25.9003V34.7847C423.264 34.5142 421.766 34.3062 420.393 34.1605C419.019 34.0149 417.563 33.9525 416.023 33.9525C412.091 33.9525 409.24 35.1176 407.472 37.448C405.703 39.7783 404.808 43.1698 404.808 47.6432L404.767 47.6848Z" fill="white"/>
<path d="M455.391 119.505C448.629 119.505 442.886 118.132 438.143 115.406C433.399 112.66 429.82 108.769 427.406 103.713C424.993 98.6567 423.786 92.6436 423.786 85.715C423.786 78.7863 425.076 72.69 427.677 67.7172C430.278 62.7444 433.94 58.9368 438.683 56.2944C443.427 53.6519 448.983 52.3203 455.37 52.3203C461.758 52.3203 467.313 53.6519 472.057 56.2944C476.801 58.9368 480.442 62.7444 483.002 67.7172C485.561 72.69 486.83 78.6823 486.83 85.715C486.83 96.1183 484.104 104.358 478.695 110.412C473.264 116.488 465.482 119.505 455.37 119.505H455.391ZM455.391 62.037C448.546 62.037 443.552 64.0969 440.41 68.1958C437.269 72.2947 435.687 78.0997 435.687 85.5693C435.687 90.5837 436.353 94.8906 437.664 98.4902C438.996 102.09 441.076 104.878 443.968 106.834C446.84 108.789 450.606 109.767 455.266 109.767C462.195 109.767 467.209 107.604 470.31 103.276C473.41 98.948 474.97 93.0389 474.97 85.5485C474.97 80.5341 474.263 76.2687 472.848 72.7524C471.433 69.2361 469.29 66.5729 466.419 64.7419C463.547 62.9109 459.865 61.9954 455.412 61.9954L455.391 62.037Z" fill="white"/>
<path d="M507.247 53.964V140.728H495.345V53.964H507.247ZM504.667 102.402V95.9726H507.267L509.452 102.402H504.667ZM505.332 77.2258L504.791 69.0072H509.577L507.392 77.2258H505.332ZM553.645 86.256C553.645 97.4707 551.606 105.814 547.549 111.307C543.492 116.779 538.04 119.526 531.195 119.526C527.554 119.526 524.266 118.756 521.333 117.195C518.42 115.635 515.881 113.596 513.738 111.037C511.595 108.477 509.91 105.606 508.682 102.423C507.455 99.2393 506.747 95.9518 506.56 92.5604L507.247 90.7918C507.247 94.2665 507.996 97.3875 509.515 100.155C511.013 102.943 513.093 105.148 515.736 106.792C518.378 108.436 521.478 109.247 525.036 109.247C530.883 109.247 535.169 107.437 537.895 103.838C540.641 100.238 541.994 94.3289 541.994 86.1103C541.994 77.8917 540.6 72.0242 537.812 68.4662C535.023 64.9083 530.8 63.1398 525.161 63.1398C521.52 63.1398 518.337 63.9512 515.653 65.595C512.968 67.2387 510.888 69.4442 509.431 72.2322C507.975 75.0203 507.247 78.2246 507.247 81.8865L506.56 76.9554C507.371 72.6692 508.765 68.6535 510.742 64.9083C512.698 61.1631 515.299 58.1253 518.545 55.8158C521.79 53.4855 525.764 52.3203 530.508 52.3203C537.812 52.3203 543.492 55.1292 547.549 60.7262C551.606 66.344 553.645 74.8539 553.645 86.256Z" fill="white"/>
<path d="M571.848 70.3604L576.218 70.6309L572.93 79.3905C573.742 74.4594 574.824 70.3188 576.155 66.9482C577.466 63.5775 579.089 60.8102 581.003 58.6671C582.917 56.524 585.061 54.9635 587.433 54.0064C589.804 53.0493 592.447 52.5708 595.36 52.5708H596.171V65.6998H595.36C590.241 65.6998 586.101 66.4488 582.917 67.9469C579.713 69.445 577.445 71.8377 576.072 75.1251C574.699 78.4126 574.012 82.782 574.012 88.2541V117.82H562.111V53.9232H572.93V79.2449L571.828 70.3604H571.848Z" fill="white"/>
<path d="M630.546 119.505C623.784 119.505 618.041 118.132 613.297 115.406C608.553 112.66 604.975 108.769 602.561 103.713C600.147 98.6567 598.941 92.6436 598.941 85.715C598.941 78.7863 600.231 72.69 602.832 67.7172C605.432 62.7444 609.094 58.9368 613.838 56.2944C618.582 53.6519 624.137 52.3203 630.525 52.3203C636.913 52.3203 642.468 53.6519 647.212 56.2944C651.956 58.9368 655.597 62.7444 658.156 67.7172C660.716 72.69 661.985 78.6823 661.985 85.715C661.985 96.1183 659.259 104.358 653.849 110.412C648.419 116.488 640.637 119.505 630.525 119.505H630.546ZM630.546 62.037C623.701 62.037 618.707 64.0969 615.565 68.1958C612.423 72.2947 610.842 78.0997 610.842 85.5693C610.842 90.5837 611.508 94.8906 612.819 98.4902C614.15 102.09 616.231 104.878 619.123 106.834C621.994 108.789 625.76 109.767 630.421 109.767C637.35 109.767 642.364 107.604 645.464 103.276C648.564 98.948 650.125 93.0389 650.125 85.5485C650.125 80.5341 649.418 76.2687 648.003 72.7524C646.588 69.2361 644.445 66.5729 641.573 64.7419C638.702 62.9109 635.019 61.9954 630.567 61.9954L630.546 62.037Z" fill="white"/>
<path d="M666.114 86.3278C666.114 74.9258 668.153 66.4158 672.21 60.798C676.268 55.1802 681.948 52.3922 689.251 52.3922C693.995 52.3922 697.99 53.5573 701.215 55.8877C704.461 58.218 707.062 61.2558 709.017 64.9802C710.973 68.7254 712.367 72.7411 713.199 77.0272L712.658 81.9584C712.658 76.4862 711.015 71.992 707.727 68.4757C704.44 64.9594 700.07 63.2116 694.598 63.2116C689.126 63.2116 684.715 64.9802 681.948 68.5381C679.16 72.096 677.766 77.9843 677.766 86.1821C677.766 94.3799 679.139 100.31 681.865 103.909C684.611 107.509 688.897 109.319 694.723 109.319C698.281 109.319 701.402 108.508 704.107 106.864C706.791 105.22 708.892 103.015 710.411 100.227C711.909 97.4385 712.679 94.3175 712.679 90.8636L713.366 92.6322C713.095 96.0029 712.346 99.2903 711.098 102.495C709.87 105.699 708.185 108.57 706.042 111.108C703.899 113.668 701.36 115.707 698.448 117.267C695.535 118.828 692.247 119.598 688.585 119.598C681.74 119.598 676.288 116.851 672.231 111.379C668.174 105.907 666.135 97.5634 666.135 86.3278H666.114ZM714.552 77.2977H712.367L710.183 69.0791H714.968L714.552 77.2977ZM715.238 102.474H710.307L712.492 96.0445H715.238V102.474ZM712.638 117.933V26.259H724.414V117.933H712.638Z" fill="white"/>
<path d="M783.24 101.846H778.454L781.596 96.6444C780.597 100.66 778.87 104.405 776.457 107.859C774.043 111.334 771.068 114.122 767.572 116.265C764.056 118.408 760.165 119.49 755.879 119.49C751.946 119.49 748.555 118.637 745.684 116.952C742.812 115.266 740.607 112.77 739.046 109.503C737.486 106.215 736.716 102.2 736.716 97.4558V53.9492H748.617V94.7302C748.617 97.6431 749.034 100.161 749.845 102.262C750.657 104.364 751.988 105.945 753.819 106.985C755.65 108.026 758.064 108.567 761.081 108.567C765.096 108.567 768.613 107.734 771.609 106.028C774.626 104.343 777.018 102.013 778.787 99.058C780.556 96.1035 781.45 92.7327 781.45 89.0084V53.97H793.352V117.867H781.866V93.5026L783.24 101.846Z" fill="white"/>
<path d="M849.349 76.5606C848.704 73.7309 847.789 71.2757 846.603 69.1742C845.417 67.0728 843.732 65.4498 841.547 64.3263C839.362 63.1819 836.345 62.6202 832.517 62.6202C826.504 62.6202 821.885 64.5552 818.701 68.446C815.497 72.3161 813.916 78.1835 813.916 86.0276C813.916 90.6883 814.582 94.7664 815.892 98.2827C817.203 101.799 819.284 104.504 822.114 106.418C824.943 108.332 828.543 109.289 832.933 109.289C836.761 109.289 839.778 108.644 841.963 107.375C844.148 106.106 845.833 104.379 847.019 102.236C848.205 100.093 849.121 97.7833 849.766 95.3282L860.439 98.6156C859.066 105.274 856.195 110.434 851.825 114.075C847.456 117.716 841.193 119.547 833.079 119.547C826.337 119.547 820.636 118.257 815.976 115.656C811.315 113.055 807.778 109.269 805.364 104.296C802.951 99.323 801.744 93.3724 801.744 86.4437C801.744 79.5151 802.971 73.1275 805.447 68.1131C807.903 63.0987 811.481 59.2287 816.184 56.4822C820.886 53.7357 826.421 52.3833 832.808 52.3833C838.551 52.3833 843.274 53.2364 846.977 54.9217C850.681 56.607 853.594 59.083 855.737 62.308C857.88 65.5539 859.357 69.4863 860.19 74.147L849.37 76.6022L849.349 76.5606Z" fill="white"/>
<path d="M862.889 53.9872H905.168V63.4334H862.889V53.9872ZM873.021 98.8671V35.7814H884.798V97.7643C884.798 101.405 885.568 104.152 887.128 105.983C888.689 107.814 891.186 108.729 894.66 108.729C896.387 108.729 898.01 108.625 899.508 108.396C901.006 108.168 902.671 107.772 904.502 107.231L906 117.364C904.543 117.822 903.129 118.196 901.755 118.529C900.382 118.841 898.947 119.091 897.448 119.278C895.95 119.466 894.182 119.549 892.184 119.549C887.815 119.549 884.174 118.633 881.302 116.802C878.431 114.971 876.33 112.516 874.998 109.416C873.666 106.316 873.021 102.8 873.021 98.8879V98.8671Z" fill="white"/>
<path d="M296.257 214.209V132.106H325.262C334.292 132.106 341.72 133.542 347.567 136.413C353.413 139.285 357.762 143.737 360.633 149.75C363.504 155.763 364.94 163.524 364.94 173.012C364.94 182.5 363.296 189.761 360.009 195.858C356.721 201.975 352.165 206.552 346.318 209.611C340.471 212.669 333.73 214.188 326.073 214.188H296.237L296.257 214.209ZM302 212.295L298.713 209.008H325.532C333.834 209.008 340.43 207.489 345.299 204.43C350.188 201.371 353.725 197.127 355.91 191.696C358.095 186.266 359.197 180.045 359.197 173.012C359.197 164.356 358.011 157.407 355.639 152.205C353.268 147.004 349.543 143.217 344.487 140.845C339.431 138.473 332.731 137.287 324.43 137.287H300.752L301.979 135.789V212.274L302 212.295Z" fill="white"/>
<path d="M401.062 215.647C394.487 215.647 388.973 214.294 384.5 211.61C380.026 208.926 376.676 205.056 374.45 200.042C372.224 195.027 371.1 189.139 371.1 182.398C371.1 175.656 372.307 169.726 374.721 164.878C377.134 160.051 380.567 156.327 384.978 153.726C389.41 151.125 394.57 149.835 400.5 149.835C406.43 149.835 411.652 151.042 415.627 153.456C419.601 155.869 422.555 159.282 424.511 163.651C426.467 168.02 427.445 173.139 427.445 178.985V181.108C427.445 182.148 427.361 183.147 427.174 184.041H374.221V179.256H424.032L422.264 181.024C422.264 172.91 420.641 166.522 417.395 161.862C414.149 157.201 408.469 154.891 400.354 154.891C392.24 154.891 386.705 157.284 382.71 162.07C378.695 166.855 376.697 173.825 376.697 182.939C376.697 191.324 378.695 198.023 382.71 202.996C386.726 207.969 392.781 210.445 400.916 210.445C405.66 210.445 409.405 209.675 412.131 208.115C414.877 206.554 416.958 204.494 418.435 201.893C419.892 199.293 421.078 196.401 421.993 193.196L427.195 194.965C426.092 199.334 424.449 203.079 422.264 206.18C420.079 209.28 417.249 211.631 413.775 213.233C410.3 214.835 406.076 215.626 401.041 215.626L401.062 215.647Z" fill="white"/>
<path d="M461.686 215.73C455.756 215.73 450.867 214.94 447.038 213.337C443.21 211.735 440.214 209.426 438.071 206.367C435.928 203.309 434.305 199.688 433.223 195.485L438.549 194.383C439.361 197.212 440.588 199.855 442.17 202.31C443.772 204.765 446.123 206.742 449.223 208.198C452.323 209.655 456.484 210.383 461.665 210.383C467.512 210.383 471.881 209.363 474.794 207.304C477.707 205.244 479.164 202.123 479.164 197.92C479.164 195.007 478.435 192.697 476.979 191.012C475.523 189.327 473.255 187.974 470.196 186.975C467.137 185.977 463.288 185.144 458.628 184.52C453.509 183.709 449.369 182.523 446.185 180.962C442.981 179.402 440.692 177.488 439.277 175.22C437.863 172.931 437.155 170.288 437.155 167.292C437.155 162.195 439.007 157.992 442.69 154.704C446.393 151.417 451.886 149.773 459.169 149.773C464.266 149.773 468.365 150.501 471.424 151.958C474.482 153.414 476.875 155.412 478.602 157.909C480.329 160.426 481.702 163.36 482.701 166.731L477.229 168.104C475.959 163.089 473.775 159.636 470.737 157.763C467.678 155.89 463.829 154.954 459.169 154.954C453.592 154.954 449.452 155.994 446.726 158.096C443.98 160.197 442.627 163.152 442.627 166.98C442.627 169.082 443.21 170.975 444.396 172.66C445.582 174.346 447.496 175.781 450.138 176.967C452.781 178.153 456.339 179.069 460.812 179.714C466.284 180.442 470.799 181.566 474.357 183.064C477.915 184.562 480.537 186.518 482.222 188.89C483.908 191.262 484.761 194.216 484.761 197.774C484.761 201.062 484.032 204.079 482.576 206.804C481.12 209.551 478.706 211.715 475.314 213.296C471.944 214.898 467.387 215.689 461.624 215.689L461.686 215.73Z" fill="white"/>
<path d="M504.512 133.1H496.293V125.027H504.512V133.1ZM503.139 214.246H497.667V151.16H503.139V214.246Z" fill="white"/>
<path d="M531.751 191.579L532.168 191.995L528.88 196.656C528.152 197.758 527.59 198.715 527.174 199.527C526.758 200.338 526.55 201.254 526.55 202.273C526.55 203.834 527.236 204.937 528.61 205.623C529.983 206.31 531.793 206.643 534.082 206.643H554.327C560.631 206.643 565.625 207.912 569.307 210.471C573.011 213.03 574.842 216.713 574.842 221.561C574.842 225.389 573.906 228.552 572.033 231.07C570.16 233.587 567.019 235.439 562.587 236.687C558.155 237.915 552.017 238.539 544.173 238.539C536.329 238.539 530.17 237.936 525.697 236.771C521.223 235.585 518.061 233.879 516.188 231.631C514.315 229.384 513.379 226.784 513.379 223.767C513.379 221.582 514.024 219.688 515.293 218.086C516.563 216.484 518.518 215.111 521.119 213.987C523.72 212.843 526.987 211.907 530.898 211.179L533.083 211.865C529.712 211.865 526.987 212.469 524.948 213.634C522.909 214.799 521.39 216.255 520.433 217.941C519.476 219.626 518.997 221.249 518.997 222.789C518.997 225.244 519.767 227.262 521.327 228.802C522.888 230.341 525.468 231.486 529.13 232.214C532.771 232.942 537.744 233.317 544.048 233.317C550.977 233.317 556.241 232.88 559.861 232.027C563.461 231.153 565.958 229.863 567.31 228.136C568.683 226.409 569.37 224.349 569.37 221.977C569.37 219.064 568.163 216.651 565.749 214.716C563.336 212.801 559.653 211.844 554.743 211.844H532.168C530.711 211.844 529.13 211.616 527.444 211.158C525.759 210.7 524.323 209.868 523.137 208.619C521.951 207.392 521.369 205.727 521.369 203.626C521.369 202.065 521.827 200.671 522.742 199.381C523.658 198.112 524.802 196.968 526.154 195.969L531.772 191.6L531.751 191.579ZM547.065 154.356L552.267 153.253L551.58 157.352L546.795 155.583C549.437 155.958 552.017 156.54 554.535 157.352C557.052 158.163 559.32 159.266 561.38 160.639C563.44 162.013 565.084 163.76 566.311 165.903C567.539 168.046 568.163 170.668 568.163 173.768C568.163 178.138 567.227 181.82 565.354 184.775C563.482 187.75 560.631 189.997 556.803 191.558C552.974 193.118 548.189 193.888 542.425 193.888C534.394 193.888 528.298 191.974 524.157 188.146C519.996 184.317 517.936 179.344 517.936 173.227C517.936 168.4 518.955 164.322 521.015 161.055C523.075 157.768 526.03 155.313 529.92 153.669C533.79 152.025 538.43 151.214 543.819 151.214H572.969V156.416H567.768C566.311 156.416 564.501 156.311 562.358 156.083C560.215 155.854 557.864 155.583 555.305 155.271C552.745 154.959 550.02 154.647 547.086 154.376L547.065 154.356ZM542.425 156.416C535.954 156.416 531.148 157.851 528.048 160.723C524.948 163.594 523.387 167.589 523.387 172.686C523.387 177.784 524.885 181.966 527.902 184.65C530.919 187.334 535.83 188.687 542.675 188.687C549.52 188.687 554.555 187.334 557.801 184.65C561.047 181.966 562.649 177.971 562.649 172.686C562.649 167.401 560.902 163.594 557.385 160.723C553.869 157.851 548.875 156.416 542.404 156.416H542.425ZM526.82 212.24V209.493H529.005L530.108 211.678L526.82 212.219V212.24Z" fill="white"/>
<path d="M588.802 166.606H592.36L590.446 169.352C591.549 166.065 593.317 162.944 595.793 159.968C598.248 157.014 601.307 154.559 604.969 152.645C608.61 150.73 612.667 149.773 617.141 149.773C621.614 149.773 625.276 150.585 628.439 152.228C631.601 153.872 633.973 156.306 635.617 159.552C637.261 162.798 638.072 166.793 638.072 171.516V214.211H632.6V172.203C632.6 168.458 632.101 165.316 631.102 162.757C630.103 160.197 628.439 158.262 626.109 156.931C623.778 155.599 620.657 154.954 616.725 154.954C611.71 154.954 607.195 155.953 603.18 157.971C599.164 159.968 596.001 162.736 593.671 166.252C591.341 169.768 590.175 173.763 590.175 178.216V214.211H584.703V151.126H590.175V175.49L588.802 166.606Z" fill="white"/>
<path d="M7.07544 7.5177V64.1211L63.6788 106.574L67.2165 124.262H7.07544V180.866L67.2165 244.544H187.499L244.102 191.479V134.875H127.358V113.649H180.423L244.102 106.574V64.1211L187.499 7.5177H7.07544Z" fill="url(#paint0_linear_331_1635)"/>
<path d="M245.31 117.349L251.24 111.419V62.2118L249.471 57.9673L190.381 0H187.946L5.9299 0.374504L0 6.30441V69.723L4.05732 72.5735L59.3405 111.378V118.577H5.9299L0 124.507V184.846L1.74778 189.049L59.611 246.912L63.8139 248.66H188.529L192.44 247.183L249.243 197.496L251.261 193.023V133.87L245.331 127.94H131.581V117.329H245.331L245.31 117.349ZM131.56 105.469V72.5943H185.907L206.964 89.0107L228.061 105.469H131.56ZM239.38 99.2476L193.876 63.7515L193.918 20.0992L239.38 64.6878V99.2476ZM24.7183 72.5943H59.3405V96.8965L24.7183 72.5943ZM59.3405 182.391V229.892L11.8598 182.412V130.458H65.2704L71.2003 124.528V66.6644L65.2704 60.7346H11.8598V12.2551L181.996 11.9014V60.7346H125.61L119.68 66.6644V176.461H65.2704L59.3405 182.391ZM186.282 236.8H71.2211V188.342H187.946L191.775 186.948L239.38 146.687V190.36L186.282 236.821V236.8ZM229.102 139.821L185.762 176.461H131.56V139.821H229.102Z" fill="white"/>
<defs>
<linearGradient id="paint0_linear_331_1635" x1="-166.272" y1="-183.519" x2="125.589" y2="244.544" gradientUnits="userSpaceOnUse">
<stop stop-color="white"/>
<stop offset="1" stop-color="white" stop-opacity="0"/>
</linearGradient>
</defs>
</svg>
